<?xml version="1.0" standalone="no"?>
<!DOCTYPE svg PUBLIC "-//W3C//DTD SVG 20010904//EN"
 "http://www.w3.org/TR/2001/REC-SVG-20010904/DTD/svg10.dtd">
<svg version="1.0" xmlns="http://www.w3.org/2000/svg"
 width="900.000000pt" height="880.000000pt" viewBox="0 0 900.000000 880.000000"
 preserveAspectRatio="xMidYMid meet">
<metadata>
Created by potrace 1.16, written by Peter Selinger 2001-2019
</metadata>
<g transform="translate(0.000000,880.000000) scale(0.100000,-0.100000)"
fill="#000000" stroke="none">
<path d="M4210 8340 c-221 -13 -339 -28 -518 -66 -607 -129 -1188 -405 -1672
-793 -665 -534 -1147 -1284 -1354 -2106 -264 -1053 -87 -2185 482 -3079 565
-886 1411 -1496 2422 -1745 353 -87 631 -117 988 -107 297 8 441 20 622 52
1531 273 2766 1408 3150 2899 80 308 115 550 126 865 19 533 -74 1086 -263
1565 -531 1350 -1713 2287 -3148 2495 -163 24 -595 34 -835 20z m2257 -1319
c193 -3 355 -10 359 -14 4 -4 -40 -56 -99 -115 -123 -124 -147 -166 -147 -262
0 -73 12 -122 62 -265 l36 -100 12 -520 c6 -286 16 -567 20 -625 14 -167 11
-474 -5 -564 -15 -88 -54 -174 -85 -194 -26 -16 -174 -17 -216 -2 -122 47
-134 152 -115 1035 16 764 21 838 66 967 39 114 59 210 50 245 l-5 23 -40 -20
c-67 -34 -606 -448 -682 -523 -35 -35 -48 -56 -48 -76 0 -16 24 -114 54 -218
86 -299 93 -403 40 -561 -74 -221 -163 -337 -434 -565 -177 -149 -234 -236
-234 -357 -1 -172 84 -276 437 -538 164 -122 236 -188 292 -267 165 -230 224
-602 144 -895 -111 -409 -517 -703 -1114 -805 -239 -41 -655 -36 -861 10 -439
99 -780 318 -924 597 -36 69 -43 92 -51 178 -16 155 0 261 55 374 156 322 403
527 780 651 187 61 411 99 732 122 l102 8 -38 62 c-20 34 -54 113 -75 175 -36
109 -37 117 -32 218 2 58 12 124 20 147 l16 42 -27 5 c-15 3 -74 10 -132 16
-277 28 -454 83 -628 196 -176 115 -301 280 -380 505 -28 80 -82 316 -82 359
0 19 -17 19 -544 22 -299 2 -548 7 -553 11 -12 13 80 96 802 723 369 320 726
632 795 693 l125 110 1100 -1 c605 0 1258 -3 1452 -7z"/>
<path d="M4285 6339 c-285 -47 -465 -311 -465 -681 0 -509 388 -1033 812
-1100 177 -27 349 60 467 237 266 398 143 1016 -274 1377 -163 141 -350 199
-540 167z"/>
<path d="M4335 3545 c-284 -45 -540 -168 -675 -322 -126 -146 -180 -391 -130
-587 74 -292 308 -480 730 -588 102 -26 132 -29 258 -29 243 1 408 23 543 74
393 148 584 441 513 785 -36 173 -103 294 -221 395 -167 143 -361 236 -571
272 -103 18 -335 18 -447 0z"/>
</g>
</svg>
